<?xml version="1.0" encoding="UTF-8" standalone="no"?>
<!-- Created with Inkscape (http://www.inkscape.org/) -->

<svg
   xmlns:dc="http://purl.org/dc/elements/1.1/"
   xmlns:cc="http://creativecommons.org/ns#"
   xmlns:rdf="http://www.w3.org/1999/02/22-rdf-syntax-ns#"
   xmlns:svg="http://www.w3.org/2000/svg"
   xmlns="http://www.w3.org/2000/svg"
   xmlns:sodipodi="http://sodipodi.sourceforge.net/DTD/sodipodi-0.dtd"
   xmlns:inkscape="http://www.inkscape.org/namespaces/inkscape"
   width="128"
   height="128"
   id="svg2"
   version="1.1"
   inkscape:version="0.48.4 r9939"
   sodipodi:docname="verticalPattern.svg">
  <defs
     id="defs4" />
  <sodipodi:namedview
     id="base"
     pagecolor="#ffffff"
     bordercolor="#666666"
     borderopacity="1.0"
     inkscape:pageopacity="0"
     inkscape:pageshadow="2"
     inkscape:zoom="1.979899"
     inkscape:cx="128.1171"
     inkscape:cy="51.174939"
     inkscape:document-units="px"
     inkscape:current-layer="layer1"
     showgrid="false"
     borderlayer="false"
     showguides="true"
     showborder="true"
     inkscape:showpageshadow="false"
     inkscape:window-width="1366"
     inkscape:window-height="724"
     inkscape:window-x="-2"
     inkscape:window-y="21"
     inkscape:window-maximized="1"
     inkscape:guide-bbox="true">
    <sodipodi:guide
       position="0,0"
       orientation="0,128"
       id="guide2985" />
    <sodipodi:guide
       position="128,0"
       orientation="-128,0"
       id="guide2987" />
    <sodipodi:guide
       position="128,128"
       orientation="0,-128"
       id="guide2989" />
    <sodipodi:guide
       position="0,128"
       orientation="128,0"
       id="guide2991" />
    <sodipodi:guide
       orientation="0,1"
       position="149.50258,162.63456"
       id="guide3784" />
    <sodipodi:guide
       orientation="1,0"
       position="128,84.347738"
       id="guide3786" />
  </sodipodi:namedview>
  <metadata
     id="metadata7">
    <rdf:RDF>
      <cc:Work
         rdf:about="">
        <dc:format>image/svg+xml</dc:format>
        <dc:type
           rdf:resource="http://purl.org/dc/dcmitype/StillImage" />
        <dc:title></dc:title>
      </cc:Work>
    </rdf:RDF>
  </metadata>
  <g
     inkscape:label="Layer 1"
     inkscape:groupmode="layer"
     id="layer1"
     transform="translate(0,-924.3622)">
    <path
       style="fill:none;stroke:#e74c3c;stroke-width:8;stroke-linecap:butt;stroke-linejoin:miter;stroke-opacity:1;stroke-miterlimit:4;stroke-dasharray:none"
       d="m 20.708127,18.903525 c 0,0.841794 0,1.683588 0,2.525381 0,0.168359 0.07529,0.354492 0,0.505077 -0.212959,0.425917 -0.797193,0.584235 -1.010152,1.010152 -0.167364,0.334727 0.141105,1.596988 0,2.020305 -0.119048,0.357143 -0.386029,0.65301 -0.505077,1.010153 -0.05324,0.159719 0.07529,0.354491 0,0.505076 -0.106479,0.212959 -0.398596,0.292118 -0.505076,0.505076 -0.163161,0.326323 0.163161,2.199059 0,2.525382 -0.106479,0.212959 -0.429784,0.279199 -0.505076,0.505076 -0.10648,0.319438 0.150584,0.708983 0,1.010153 -0.212959,0.425917 -0.74601,0.613938 -1.010153,1.010152 -0.09339,0.140083 0,0.336718 0,0.505076 0,0.336718 0.10648,0.690715 0,1.010153 -0.07529,0.225877 -0.398597,0.292117 -0.505076,0.505076 -0.07529,0.150585 0,0.336718 0,0.505077 0,0.168358 0,0.336717 0,0.505076 0,1.178511 0,2.357022 0,3.535534 0,0.336717 0.106479,0.690714 0,1.010152 -0.119048,0.357143 -0.386029,0.65301 -0.505076,1.010153 -0.09753,0.292578 0,1.582614 0,2.020305 0,1.683587 0,3.367175 0,5.050763 0,1.683587 0,3.367175 0,5.050762 0,0.505077 0,1.010153 0,1.515229 0,0.168359 -0.07529,0.354492 0,0.505076 0.27147,0.542941 0.738682,0.972289 1.010152,1.515229 0.07529,0.150585 -0.05324,0.345357 0,0.505077 1.061555,3.184665 -0.0399,-2.219833 1.010153,3.030457 0.101015,0.505076 -0.202031,1.010153 0,1.515229 0.225444,0.56361 0.645937,1.029608 1.010152,1.515229 0.142858,0.190476 0.429784,0.279199 0.505077,0.505076 0.106479,0.319438 -0.10648,0.690714 0,1.010153 0.150584,0.451754 0.797193,0.584234 1.010152,1.010152 0.238095,0.476191 0.23116,1.058702 0.505076,1.515229 0.244998,0.40833 0.673435,0.673435 1.010153,1.010153 0.168359,0.168358 0.398597,0.292117 0.505076,0.505076 0.07529,0.150584 0,0.336717 0,0.505076 0.168359,0.336718 0.296253,0.696918 0.505077,1.010153 0.49547,0.743206 1.524834,1.277098 2.020305,2.020305 0.208823,0.313235 0.296253,0.696917 0.505076,1.010152 0.132071,0.198107 0.398597,0.292118 0.505076,0.505077 0.07529,0.150584 -0.119047,0.386028 0,0.505076 0.266199,0.266198 0.696918,0.296253 1.010153,0.505076 0.396214,0.264143 0.613938,0.74601 1.010152,1.010153 0.62647,0.417646 1.393835,0.592505 2.020305,1.010152 0.198108,0.132072 0.306969,0.373005 0.505077,0.505076 0.313235,0.208824 0.673435,0.336718 1.010152,0.505077 0.336718,0.168358 0.65301,0.386028 1.010153,0.505076 0.159719,0.05324 0.341744,-0.04083 0.505076,0 0.516501,0.129125 0.99317,0.400665 1.515229,0.505076 0.330179,0.06604 0.708983,-0.150584 1.010152,0 0.425918,0.212959 0.613938,0.74601 1.010153,1.010153 0.140083,0.09339 0.336717,0 0.505076,0 0.336718,0 0.678017,-0.05536 1.010153,0 0.684716,0.114119 1.339624,0.36894 2.020305,0.505076 0.165089,0.03302 0.336717,0 0.505076,0 0.841794,0 1.683588,0 2.525381,0 3.030458,0 6.060916,0 9.091373,0 2.862099,0 5.724198,0 8.586297,0 0.599323,0 3.550424,0.09804 4.04061,0 0.369151,-0.07383 0.660617,-0.365262 1.010153,-0.505076 0.494318,-0.197728 1.010152,-0.336718 1.515229,-0.505076 0.505076,-0.168359 0.99317,-0.400665 1.515228,-0.505077 0.330179,-0.06603 0.673435,0 1.010153,0 0.336717,-0.168359 0.644931,-0.413771 1.010152,-0.505076 0.326664,-0.08167 0.708984,0.150585 1.010153,0 0.606092,-0.303046 0.909137,-1.212183 1.515229,-1.515229 2.890985,-1.445492 0.31877,0.313814 2.525381,-1.010152 0.520521,-0.312313 1.029608,-0.645937 1.515229,-1.010153 0.190476,-0.142857 0.292117,-0.398597 0.505076,-0.505076 0.476191,-0.238095 1.020911,-0.307349 1.515229,-0.505076 0.349536,-0.139815 0.65301,-0.386029 1.010153,-0.505077 0.658539,-0.219513 1.375793,-0.247271 2.020305,-0.505076 0.221066,-0.08843 0.336717,-0.336718 0.505076,-0.505076 0.577884,-0.577884 0.597895,-0.704375 1.515229,-1.010153 0.495312,-0.165104 2.927521,-0.645345 3.535534,-1.010152 0.40833,-0.244998 0.673435,-0.673435 1.010152,-1.010153 0.168359,-0.168359 0.292118,-0.398597 0.505077,-0.505076 0.952381,-0.476191 2.117404,-0.462321 3.030457,-1.010153 0.40833,-0.244998 0.568021,-0.8333 1.010153,-1.010152 0.468951,-0.187581 1.025233,0.122499 1.515229,0 0.230986,-0.05775 0.292117,-0.398597 0.505076,-0.505077 0.150585,-0.07529 0.336717,0 0.505076,0 0.336718,0 0.690714,0.10648 1.010153,0 0.225877,-0.07529 0.292117,-0.398596 0.505076,-0.505076 0.150585,-0.07529 0.336717,0 0.505076,0 0.168359,0 0.336718,0 0.505076,0 1.178511,0 2.357021,0 3.535531,0 0.8418,0 1.68359,0 2.52538,0 0.16836,0 0.33672,0 0.50508,0 0.16836,0 0.35449,-0.07529 0.50508,0 0.21296,0.10648 0.33671,0.336718 0.50507,0.505076 0.33672,0.336718 0.67344,0.673435 1.01016,1.010153 0.70822,0.708227 1.75923,1.481106 2.0203,2.525381 0.0817,0.326664 -0.12505,0.697519 0,1.010153 0.22545,0.56361 0.64594,1.029608 1.01015,1.515229 0.14286,0.190476 0.41665,0.28401 0.50508,0.505076 1.66521,0.596958 0.23361,1.71097 0.50508,2.525381 0.11904,0.357143 0.41377,0.644931 0.50507,1.010153 0.0817,0.326664 -0.15058,0.708983 0,1.010152 0.21296,0.425918 0.82257,0.572465 1.01016,1.010153 0.67016,1.56372 0.50507,3.419321 0.50507,5.050763 0,1.34687 0,2.69374 0,4.04061 0,2.188664 0,4.377328 0,6.565991 0,0.634012 0.0954,2.839634 0,3.030458 -1.00235,2.004703 -0.15964,-2.232274 -1.01015,2.020305 -0.066,0.330179 0.0817,0.683489 0,1.010153 -0.0913,0.365221 -0.33672,0.673431 -0.50508,1.010151 -0.16836,0.33672 -0.29625,0.69692 -0.50507,1.01015 -0.13208,0.19811 -0.33672,0.33672 -0.50508,0.50508 -0.50508,0.50508 -1.01015,1.01015 -1.51523,1.51523 -0.96378,0.96378 -2.26893,2.60826 -3.53553,3.03046 -0.15972,0.0532 -0.34536,-0.0532 -0.50508,0 -0.35714,0.11904 -0.64493,0.41377 -1.01015,0.50507 -0.32667,0.0817 -0.68349,-0.0817 -1.01015,0 -0.36523,0.0913 -0.65301,0.38603 -1.01016,0.50508 -0.15972,0.0532 -0.35449,-0.0753 -0.50507,0 -0.21296,0.10648 -0.33672,0.33672 -0.50508,0.50508 -0.33672,0.33671 -0.61394,0.746 -1.01015,1.01015 -0.14008,0.0934 -0.34175,-0.0408 -0.50508,0 -4.27365,1.42455 0.55972,-0.009 -2.525379,0.50507 -2.195668,0.36595 -4.451784,1.31557 -6.565992,2.02031 -0.505076,0.16836 -0.990075,0.41755 -1.515229,0.50508 -0.505076,0 -1.010152,0 -1.515229,0 -0.168358,0.16835 -0.271604,0.45838 -0.505076,0.50507 -0.660357,0.13207 -1.381428,-0.21296 -2.020305,0 -0.451754,0.15059 -0.568021,0.8333 -1.010152,1.01015 -0.468952,0.18758 -1.019961,-0.0991 -1.515229,0 -0.738302,0.14766 -1.289862,0.82755 -2.020305,1.01016 -0.326664,0.0817 -0.679974,-0.066 -1.010153,0 -0.522058,0.10441 -0.99317,0.40066 -1.515229,0.50507 -0.330178,0.066 -0.708983,-0.15058 -1.010152,0 -0.425918,0.21296 -0.584235,0.7972 -1.010153,1.01016 -0.301169,0.15058 -0.673435,0 -1.010152,0 -0.673435,0 -1.34687,0 -2.020305,0 -0.505077,0 -1.017025,-0.083 -1.515229,0 -0.525154,0.0875 -0.993171,0.40066 -1.515229,0.50507 -0.330179,0.066 -0.673435,0 -1.010153,0 -0.505076,0 -1.010152,0 -1.515228,0 -0.336718,0 -0.678017,-0.0553 -1.010153,0 -0.684716,0.11412 -1.339624,0.36894 -2.020305,0.50508 -0.165089,0.033 -0.336718,0 -0.505076,0 -1.010153,0 -2.020305,0 -3.030458,0 -0.505076,0 -1.019961,-0.0991 -1.515229,0 -0.369151,0.0738 -0.644931,0.41377 -1.010152,0.50507 -0.326664,0.0817 -0.673435,0 -1.010153,0 -1.178511,0 -2.357022,0 -3.535534,0 -3.030457,0 -6.060915,0 -9.091373,0 -7.744503,0 -15.489005,0 -23.233508,0"
       id="path4941"
       inkscape:connector-curvature="0"
       transform="translate(0,924.3622)" />
    <path
       style="fill:none;stroke:#e74c3c;stroke-width:8;stroke-linecap:butt;stroke-linejoin:miter;stroke-opacity:1;stroke-miterlimit:4;stroke-dasharray:none"
       d="m 54.548237,10.317228 c 1.37045,2.094345 -2.236648,1.37045 -2.525381,2.525382 -0.122499,0.489996 0.187581,1.046277 0,1.515229 -0.176853,0.442131 -0.673435,0.673435 -1.010152,1.010152 -0.336718,0.336718 -0.673435,0.673435 -1.010153,1.010153 -0.168359,0.168358 -0.44733,0.27409 -0.505076,0.505076 -0.122499,0.489996 0.18758,1.046277 0,1.515229 -0.176853,0.442132 -0.765155,0.601822 -1.010153,1.010152 -0.273916,0.456527 -0.307349,1.020911 -0.505076,1.515229 -0.139814,0.349536 -0.365262,0.660617 -0.505076,1.010153 -0.197728,0.494318 -0.400665,0.99317 -0.505077,1.515229 -0.06603,0.330178 0.125054,0.697518 0,1.010152 -0.225443,0.56361 -0.784708,0.951619 -1.010152,1.515229 -0.136608,0.34152 0.04953,2.782814 0,3.030458 -0.07383,0.36915 -0.505076,0.63369 -0.505076,1.010152 0,0.624124 0.708303,0.505076 1.010152,0.505076 1.851946,0 3.703893,0 5.555839,0 1.528972,0 3.671921,0.282834 5.050763,-0.505076 0.730882,-0.417647 1.267382,-1.138767 2.020305,-1.515229 1.173484,-0.586742 1.895368,-0.505076 3.030458,-0.505076 0.673435,0 1.40132,0.265279 2.020305,0 2.128429,-0.912184 0.693466,-1.653922 2.525381,-2.020305 0.495268,-0.09905 1.019961,0.09905 1.515229,0 0.369151,-0.07383 0.641001,-0.431246 1.010152,-0.505076 0.495268,-0.09905 1.010153,0 1.515229,0 1.34687,0 2.69374,0 4.04061,0 0.965972,0 3.335219,-0.200315 4.040611,0.505076 0.238095,0.238095 0,0.673435 0,1.010152 0,1.010153 0,2.020306 0,3.030458 0,0.434175 0.101396,3.73642 0,4.04061 -0.191959,0.575876 -0.697841,0.994708 -1.010153,1.515229 -0.05248,0.08747 -0.992031,2.002184 -1.010153,2.020305 -0.429232,0.429232 -1.085996,0.58092 -1.515228,1.010153 -0.266199,0.266198 -0.311389,0.687339 -0.505077,1.010152 -0.312312,0.520521 -0.630946,1.041221 -1.010152,1.515229 -0.297474,0.371842 -0.724438,0.6292 -1.010153,1.010153 -0.225877,0.301169 -0.311388,0.687339 -0.505076,1.010152 -0.312312,0.520521 -0.645937,1.029608 -1.010153,1.515229 -0.285714,0.380952 -0.673435,0.673435 -1.010152,1.010153 -0.673435,0.673435 -1.34687,1.34687 -2.020305,2.020305 -0.168359,0.168358 -0.336718,0.336717 -0.505076,0.505076 -0.168359,0.168359 -0.429784,0.279199 -0.505077,0.505076 -0.106479,0.319438 0.150585,0.708983 0,1.010153 -0.212959,0.425917 -0.724438,0.6292 -1.010152,1.010152 -0.225877,0.30117 -0.296253,0.696918 -0.505077,1.010153 -0.132071,0.198107 -0.398596,0.292117 -0.505076,0.505076 -0.07529,0.150585 0.04083,0.341744 0,0.505076 -0.129125,0.516501 -0.266981,1.039039 -0.505076,1.515229 -0.437701,0.875402 -1.474677,0.626733 -1.010153,2.020305 0.07529,0.225877 0.336718,0.336718 0.505077,0.505077 0.168358,0.168358 0.27409,0.447329 0.505076,0.505076 0.374606,0.09365 3.584781,0 4.04061,0 1.683588,0 3.367175,0 5.050763,0 0.673435,0 1.34687,0 2.020305,0 0.505076,0 1.036071,0.159719 1.515229,0 0.575875,-0.191959 0.931558,-0.84339 1.515229,-1.010153 0.647523,-0.185007 1.372781,0.185007 2.020305,0 0.58367,-0.166763 0.972288,-0.738682 1.515228,-1.010152 0.810924,-0.405462 1.692049,-0.65301 2.525382,-1.010153 0.346023,-0.148295 0.660617,-0.365262 1.010152,-0.505076 0.988637,-0.395455 2.078077,-0.533962 3.030458,-1.010153 0.542941,-0.27147 0.994708,-0.69784 1.515229,-1.010152 0.322813,-0.193688 0.673435,-0.336718 1.010152,-0.505076 1.045021,-0.522511 1.277134,-0.698091 2.525382,-1.010153 0.326664,-0.08167 0.729986,0.186777 1.010152,0 1.693801,-1.1292 0.334346,-1.010153 1.515229,-1.010153 0.451398,0 2.364427,-0.08048 2.525381,0 0.960719,0.48036 0.24365,1.236025 0.505077,2.020306 0.07529,0.225876 0.429784,0.279199 0.505074,0.505076 0.10648,0.319438 0,0.673435 0,1.010152 0,0.841794 0,1.683588 0,2.525382 0,2.188664 0,4.377327 0,6.565991 0,0.673435 0.16333,1.366977 0,2.020305 -0.182609,0.730443 -0.772055,1.30602 -1.010151,2.020305 -0.106479,0.319439 0.05536,0.678017 0,1.010153 -0.114119,0.684716 -0.285563,1.361766 -0.505076,2.020305 -0.119047,0.357143 -0.318299,0.683292 -0.505076,1.010153 -0.487056,0.852347 -0.970684,1.708564 -1.515229,2.525381 -0.132071,0.198107 -0.398597,0.292117 -0.505076,0.505076 -1.220699,2.441398 -0.11982,0.599102 -0.505076,2.525382 -0.104412,0.522058 -0.307349,1.02091 -0.505077,1.515228 -0.279628,0.699072 -0.673435,1.34687 -1.010152,2.020306 -0.168359,0.336717 -0.296253,0.696917 -0.505077,1.010152 -0.132071,0.198107 -0.416649,0.28401 -0.505076,0.505076 -0.257805,0.644513 -0.36894,1.339625 -0.505076,2.020305 -0.03302,0.16509 0.06253,0.34876 0,0.505077 -0.279629,0.699071 -0.803309,1.296351 -1.010153,2.020305 -0.138755,0.485643 0.09905,1.019961 0,1.515229 -0.07383,0.369151 -0.386028,0.653009 -0.505076,1.010152 -0.05324,0.159719 0.03302,0.339987 0,0.505076 -0.136136,0.680681 -0.36894,1.339625 -0.505076,2.020306 -0.03302,0.165089 0,0.336717 0,0.505076 0,0.673435 0,1.34687 0,2.020305"
       id="path4943"
       inkscape:connector-curvature="0"
       transform="translate(0,924.3622)" />
  </g>
</svg>
