<?xml version="1.0" encoding="UTF-8" standalone="no"?>
<!-- Created with Inkscape (http://www.inkscape.org/) -->

<svg
   xmlns:dc="http://purl.org/dc/elements/1.1/"
   xmlns:cc="http://creativecommons.org/ns#"
   xmlns:rdf="http://www.w3.org/1999/02/22-rdf-syntax-ns#"
   xmlns:svg="http://www.w3.org/2000/svg"
   xmlns="http://www.w3.org/2000/svg"
   xmlns:xlink="http://www.w3.org/1999/xlink"
   xmlns:sodipodi="http://sodipodi.sourceforge.net/DTD/sodipodi-0.dtd"
   xmlns:inkscape="http://www.inkscape.org/namespaces/inkscape"
   width="128"
   height="128"
   id="svg2"
   version="1.1"
   inkscape:version="0.48.4 r9939"
   sodipodi:docname="spray.svg">
  <defs
     id="defs4" />
  <sodipodi:namedview
     id="base"
     pagecolor="#ffffff"
     bordercolor="#666666"
     borderopacity="1.0"
     inkscape:pageopacity="0"
     inkscape:pageshadow="2"
     inkscape:zoom="1.979899"
     inkscape:cx="128.1171"
     inkscape:cy="51.174939"
     inkscape:document-units="px"
     inkscape:current-layer="layer1"
     showgrid="false"
     borderlayer="false"
     showguides="true"
     showborder="true"
     inkscape:showpageshadow="false"
     inkscape:window-width="1366"
     inkscape:window-height="724"
     inkscape:window-x="-2"
     inkscape:window-y="21"
     inkscape:window-maximized="1"
     inkscape:guide-bbox="true">
    <sodipodi:guide
       position="0,0"
       orientation="0,128"
       id="guide2985" />
    <sodipodi:guide
       position="128,0"
       orientation="-128,0"
       id="guide2987" />
    <sodipodi:guide
       position="128,128"
       orientation="0,-128"
       id="guide2989" />
    <sodipodi:guide
       position="0,128"
       orientation="128,0"
       id="guide2991" />
    <sodipodi:guide
       orientation="0,1"
       position="149.50258,162.63456"
       id="guide3784" />
    <sodipodi:guide
       orientation="1,0"
       position="128,84.347738"
       id="guide3786" />
  </sodipodi:namedview>
  <metadata
     id="metadata7">
    <rdf:RDF>
      <cc:Work
         rdf:about="">
        <dc:format>image/svg+xml</dc:format>
        <dc:type
           rdf:resource="http://purl.org/dc/dcmitype/StillImage" />
        <dc:title></dc:title>
      </cc:Work>
    </rdf:RDF>
  </metadata>
  <g
     inkscape:label="Layer 1"
     inkscape:groupmode="layer"
     id="layer1"
     transform="translate(0,-924.3622)">
    <rect
       style="fill:#ff0000;fill-opacity:1;fill-rule:evenodd;stroke:none"
       id="rect3845"
       width="9.5964499"
       height="9.0913725"
       x="19.697975"
       y="949.32666"
       rx="19.1929"
       ry="9.0913725" />
    <use
       id="use4109"
       xlink:href="#rect3845"
       x="0"
       y="0"
       width="128"
       height="128"
       transform="translate(-7.9654123,-5.6668069)" />
    <use
       id="use4111"
       xlink:href="#rect3845"
       x="0"
       y="0"
       width="128"
       height="128"
       transform="translate(-14.686809,-6.8656513)" />
    <use
       id="use4113"
       xlink:href="#rect3845"
       x="0"
       y="0"
       width="128"
       height="128"
       transform="translate(-0.60117065,-4.385449)" />
    <use
       id="use4115"
       xlink:href="#rect3845"
       x="0"
       y="0"
       width="128"
       height="128"
       transform="translate(5.6331378,-22.280735)" />
    <use
       id="use4117"
       xlink:href="#rect3845"
       x="0"
       y="0"
       width="128"
       height="128"
       transform="translate(-11.589027,-14.057432)" />
    <use
       id="use4119"
       xlink:href="#rect3845"
       x="0"
       y="0"
       width="128"
       height="128"
       transform="translate(-9.3750264,-10.052321)" />
    <use
       id="use4121"
       xlink:href="#rect3845"
       x="0"
       y="0"
       width="128"
       height="128"
       transform="translate(-9.9715145,-16.321468)" />
    <use
       id="use4123"
       xlink:href="#rect3845"
       x="0"
       y="0"
       width="128"
       height="128"
       transform="translate(6.0998999,-26.388224)" />
    <use
       id="use4125"
       xlink:href="#rect3845"
       x="0"
       y="0"
       width="128"
       height="128"
       transform="translate(4.2750952,-20.664507)" />
    <use
       id="use4127"
       xlink:href="#rect3845"
       x="0"
       y="0"
       width="128"
       height="128"
       transform="translate(13.988547,-13.212023)" />
    <use
       id="use4129"
       xlink:href="#rect3845"
       x="0"
       y="0"
       width="128"
       height="128"
       transform="translate(-9.2863663,-29.124929)" />
    <use
       id="use4131"
       xlink:href="#rect3845"
       x="0"
       y="0"
       width="128"
       height="128"
       transform="translate(9.5262948,-13.735909)" />
    <use
       id="use4133"
       xlink:href="#rect3845"
       x="0"
       y="0"
       width="128"
       height="128"
       transform="translate(16.402746,-26.131822)" />
    <use
       id="use4135"
       xlink:href="#rect3845"
       x="0"
       y="0"
       width="128"
       height="128"
       transform="translate(23.116553,-24.898343)" />
    <use
       id="use4137"
       xlink:href="#rect3845"
       x="0"
       y="0"
       width="128"
       height="128"
       transform="translate(24.788924,-18.352818)" />
    <use
       id="use4139"
       xlink:href="#rect3845"
       x="0"
       y="0"
       width="128"
       height="128"
       transform="translate(27.035196,-31.886403)" />
    <use
       id="use4141"
       xlink:href="#rect3845"
       x="0"
       y="0"
       width="128"
       height="128"
       transform="translate(7.3417757,-30.146841)" />
    <use
       id="use4143"
       xlink:href="#rect3845"
       x="0"
       y="0"
       width="128"
       height="128"
       transform="translate(34.401122,-24.948171)" />
    <use
       id="use4145"
       xlink:href="#rect3845"
       x="0"
       y="0"
       width="128"
       height="128"
       transform="translate(7.967758,-20.594834)" />
    <use
       id="use4147"
       xlink:href="#rect3845"
       x="0"
       y="0"
       width="128"
       height="128"
       transform="translate(27.18305,-29.72648)" />
    <use
       id="use4149"
       xlink:href="#rect3845"
       x="0"
       y="0"
       width="128"
       height="128"
       transform="translate(21.038392,-14.787051)" />
    <use
       id="use4151"
       xlink:href="#rect3845"
       x="0"
       y="0"
       width="128"
       height="128"
       transform="translate(34.654327,-19.601274)" />
    <use
       id="use4153"
       xlink:href="#rect3845"
       x="0"
       y="0"
       width="128"
       height="128"
       transform="translate(31.232172,-10.880016)" />
    <use
       id="use4155"
       xlink:href="#rect3845"
       x="0"
       y="0"
       width="128"
       height="128"
       transform="translate(44.160273,-21.669898)" />
    <use
       id="use4157"
       xlink:href="#rect3845"
       x="0"
       y="0"
       width="128"
       height="128"
       transform="translate(42.698797,-12.303651)" />
    <use
       id="use4159"
       xlink:href="#rect3845"
       x="0"
       y="0"
       width="128"
       height="128"
       transform="translate(39.261,-20.260569)" />
    <use
       id="use4161"
       xlink:href="#rect3845"
       x="0"
       y="0"
       width="128"
       height="128"
       transform="translate(27.167831,-22.360883)" />
    <use
       id="use4163"
       xlink:href="#rect3845"
       x="0"
       y="0"
       width="128"
       height="128"
       transform="translate(48.154579,-14.589755)" />
    <use
       id="use4165"
       xlink:href="#rect3845"
       x="0"
       y="0"
       width="128"
       height="128"
       transform="translate(49.050225,-14.628699)" />
    <use
       id="use4167"
       xlink:href="#rect3845"
       x="0"
       y="0"
       width="128"
       height="128"
       transform="translate(37.13248,-10.266456)" />
    <use
       id="use4169"
       xlink:href="#rect3845"
       x="0"
       y="0"
       width="128"
       height="128"
       transform="translate(49.287494,-10.574496)" />
    <use
       id="use4171"
       xlink:href="#rect3845"
       x="0"
       y="0"
       width="128"
       height="128"
       transform="translate(43.954092,-31.511866)" />
    <use
       id="use4173"
       xlink:href="#rect3845"
       x="0"
       y="0"
       width="128"
       height="128"
       transform="translate(40.141509,-8.0777614)" />
    <use
       id="use4175"
       xlink:href="#rect3845"
       x="0"
       y="0"
       width="128"
       height="128"
       transform="translate(50.483207,-25.925355)" />
    <use
       id="use4177"
       xlink:href="#rect3845"
       x="0"
       y="0"
       width="128"
       height="128"
       transform="translate(61.829118,-23.180001)" />
    <use
       id="use4179"
       xlink:href="#rect3845"
       x="0"
       y="0"
       width="128"
       height="128"
       transform="translate(57.22701,-27.280619)" />
    <use
       id="use4181"
       xlink:href="#rect3845"
       x="0"
       y="0"
       width="128"
       height="128"
       transform="translate(68.810782,-20.976421)" />
    <use
       id="use4183"
       xlink:href="#rect3845"
       x="0"
       y="0"
       width="128"
       height="128"
       transform="translate(35.978869,-24.856663)" />
    <use
       id="use4185"
       xlink:href="#rect3845"
       x="0"
       y="0"
       width="128"
       height="128"
       transform="translate(63.35547,-21.908261)" />
    <use
       id="use4187"
       xlink:href="#rect3845"
       x="0"
       y="0"
       width="128"
       height="128"
       transform="translate(69.376632,-19.597329)" />
    <use
       id="use4189"
       xlink:href="#rect3845"
       x="0"
       y="0"
       width="128"
       height="128"
       transform="translate(59.440158,-2.1320743)" />
    <use
       id="use4191"
       xlink:href="#rect3845"
       x="0"
       y="0"
       width="128"
       height="128"
       transform="translate(65.988425,-26.604883)" />
    <use
       id="use4193"
       xlink:href="#rect3845"
       x="0"
       y="0"
       width="128"
       height="128"
       transform="translate(69.071887,-18.074241)" />
    <use
       id="use4195"
       xlink:href="#rect3845"
       x="0"
       y="0"
       width="128"
       height="128"
       transform="translate(63.152962,-21.651243)" />
    <use
       id="use4197"
       xlink:href="#rect3845"
       x="0"
       y="0"
       width="128"
       height="128"
       transform="translate(78.016246,-13.262051)" />
    <use
       id="use4199"
       xlink:href="#rect3845"
       x="0"
       y="0"
       width="128"
       height="128"
       transform="translate(50.067189,-9.0738941)" />
    <use
       id="use4201"
       xlink:href="#rect3845"
       x="0"
       y="0"
       width="128"
       height="128"
       transform="translate(69.839867,0.70819386)" />
    <use
       id="use4203"
       xlink:href="#rect3845"
       x="0"
       y="0"
       width="128"
       height="128"
       transform="translate(59.616053,-20.00443)" />
    <use
       id="use4205"
       xlink:href="#rect3845"
       x="0"
       y="0"
       width="128"
       height="128"
       transform="translate(74.251804,2.0997337)" />
    <use
       id="use4207"
       xlink:href="#rect3845"
       x="0"
       y="0"
       width="128"
       height="128"
       transform="translate(54.625646,-2.826252)" />
    <use
       id="use4209"
       xlink:href="#rect3845"
       x="0"
       y="0"
       width="128"
       height="128"
       transform="translate(73.328806,-11.175261)" />
    <use
       id="use4211"
       xlink:href="#rect3845"
       x="0"
       y="0"
       width="128"
       height="128"
       transform="translate(64.010015,-19.751579)" />
    <use
       id="use4213"
       xlink:href="#rect3845"
       x="0"
       y="0"
       width="128"
       height="128"
       transform="translate(62.475746,-17.058988)" />
    <use
       id="use4215"
       xlink:href="#rect3845"
       x="0"
       y="0"
       width="128"
       height="128"
       transform="translate(74.827869,-5.9064474)" />
    <use
       id="use4217"
       xlink:href="#rect3845"
       x="0"
       y="0"
       width="128"
       height="128"
       transform="translate(53.331712,-6.5358887)" />
    <use
       id="use4219"
       xlink:href="#rect3845"
       x="0"
       y="0"
       width="128"
       height="128"
       transform="translate(56.226339,3.8306408)" />
    <use
       id="use4221"
       xlink:href="#rect3845"
       x="0"
       y="0"
       width="128"
       height="128"
       transform="translate(51.691139,4.6071211)" />
    <use
       id="use4223"
       xlink:href="#rect3845"
       x="0"
       y="0"
       width="128"
       height="128"
       transform="translate(63.954104,16.494346)" />
    <use
       id="use4225"
       xlink:href="#rect3845"
       x="0"
       y="0"
       width="128"
       height="128"
       transform="translate(70.278966,8.8420789)" />
    <use
       id="use4227"
       xlink:href="#rect3845"
       x="0"
       y="0"
       width="128"
       height="128"
       transform="translate(89.708789,7.2482958)" />
    <use
       id="use4229"
       xlink:href="#rect3845"
       x="0"
       y="0"
       width="128"
       height="128"
       transform="translate(67.040086,1.5970203)" />
    <use
       id="use4231"
       xlink:href="#rect3845"
       x="0"
       y="0"
       width="128"
       height="128"
       transform="translate(61.274209,-3.1016838)" />
    <use
       id="use4233"
       xlink:href="#rect3845"
       x="0"
       y="0"
       width="128"
       height="128"
       transform="translate(68.749787,14.176643)" />
    <use
       id="use4235"
       xlink:href="#rect3845"
       x="0"
       y="0"
       width="128"
       height="128"
       transform="translate(81.084653,0.84285861)" />
    <use
       id="use4237"
       xlink:href="#rect3845"
       x="0"
       y="0"
       width="128"
       height="128"
       transform="translate(85.232748,9.4729231)" />
    <use
       id="use4239"
       xlink:href="#rect3845"
       x="0"
       y="0"
       width="128"
       height="128"
       transform="translate(73.9199,32.181586)" />
    <use
       id="use4241"
       xlink:href="#rect3845"
       x="0"
       y="0"
       width="128"
       height="128"
       transform="translate(79.624649,12.327198)" />
    <use
       id="use4243"
       xlink:href="#rect3845"
       x="0"
       y="0"
       width="128"
       height="128"
       transform="translate(55.170401,28.903002)" />
    <use
       id="use4245"
       xlink:href="#rect3845"
       x="0"
       y="0"
       width="128"
       height="128"
       transform="translate(72.091642,34.106024)" />
    <use
       id="use4247"
       xlink:href="#rect3845"
       x="0"
       y="0"
       width="128"
       height="128"
       transform="translate(69.781477,40.731889)" />
    <use
       id="use4249"
       xlink:href="#rect3845"
       x="0"
       y="0"
       width="128"
       height="128"
       transform="translate(59.041674,18.883593)" />
    <use
       id="use4251"
       xlink:href="#rect3845"
       x="0"
       y="0"
       width="128"
       height="128"
       transform="translate(55.673972,38.571643)" />
    <use
       id="use4253"
       xlink:href="#rect3845"
       x="0"
       y="0"
       width="128"
       height="128"
       transform="translate(74.810945,18.181988)" />
    <use
       id="use4255"
       xlink:href="#rect3845"
       x="0"
       y="0"
       width="128"
       height="128"
       transform="translate(81.576961,32.820871)" />
    <use
       id="use4257"
       xlink:href="#rect3845"
       x="0"
       y="0"
       width="128"
       height="128"
       transform="translate(65.276314,19.639503)" />
    <use
       id="use4259"
       xlink:href="#rect3845"
       x="0"
       y="0"
       width="128"
       height="128"
       transform="translate(69.567888,31.465922)" />
    <use
       id="use4261"
       xlink:href="#rect3845"
       x="0"
       y="0"
       width="128"
       height="128"
       transform="translate(76.105258,36.875528)" />
    <use
       id="use4263"
       xlink:href="#rect3845"
       x="0"
       y="0"
       width="128"
       height="128"
       transform="translate(65.46023,31.846898)" />
    <use
       id="use4265"
       xlink:href="#rect3845"
       x="0"
       y="0"
       width="128"
       height="128"
       transform="translate(61.098267,35.958675)" />
    <use
       id="use4267"
       xlink:href="#rect3845"
       x="0"
       y="0"
       width="128"
       height="128"
       transform="translate(41.059589,40.393778)" />
    <use
       id="use4269"
       xlink:href="#rect3845"
       x="0"
       y="0"
       width="128"
       height="128"
       transform="translate(43.24799,40.322016)" />
    <use
       id="use4271"
       xlink:href="#rect3845"
       x="0"
       y="0"
       width="128"
       height="128"
       transform="translate(60.419534,40.142828)" />
    <use
       id="use4273"
       xlink:href="#rect3845"
       x="0"
       y="0"
       width="128"
       height="128"
       transform="translate(53.74302,19.017007)" />
    <use
       id="use4275"
       xlink:href="#rect3845"
       x="0"
       y="0"
       width="128"
       height="128"
       transform="translate(37.887884,28.452925)" />
    <use
       id="use4277"
       xlink:href="#rect3845"
       x="0"
       y="0"
       width="128"
       height="128"
       transform="translate(39.219544,36.632724)" />
    <use
       id="use4279"
       xlink:href="#rect3845"
       x="0"
       y="0"
       width="128"
       height="128"
       transform="translate(54.276097,36.770471)" />
    <use
       id="use4281"
       xlink:href="#rect3845"
       x="0"
       y="0"
       width="128"
       height="128"
       transform="translate(36.394134,28.150583)" />
    <use
       id="use4283"
       xlink:href="#rect3845"
       x="0"
       y="0"
       width="128"
       height="128"
       transform="translate(42.547269,53.070656)" />
    <use
       id="use4285"
       xlink:href="#rect3845"
       x="0"
       y="0"
       width="128"
       height="128"
       transform="translate(39.619411,34.592831)" />
    <use
       id="use4287"
       xlink:href="#rect3845"
       x="0"
       y="0"
       width="128"
       height="128"
       transform="translate(55.980164,28.647433)" />
    <use
       id="use4289"
       xlink:href="#rect3845"
       x="0"
       y="0"
       width="128"
       height="128"
       transform="translate(33.984217,43.034965)" />
    <use
       id="use4291"
       xlink:href="#rect3845"
       x="0"
       y="0"
       width="128"
       height="128"
       transform="translate(34.928854,28.90042)" />
    <use
       id="use4293"
       xlink:href="#rect3845"
       x="0"
       y="0"
       width="128"
       height="128"
       transform="translate(31.2829,29.65596)" />
    <use
       id="use4295"
       xlink:href="#rect3845"
       x="0"
       y="0"
       width="128"
       height="128"
       transform="translate(39.72962,39.327339)" />
    <use
       id="use4297"
       xlink:href="#rect3845"
       x="0"
       y="0"
       width="128"
       height="128"
       transform="translate(29.975528,40.599934)" />
    <use
       id="use4299"
       xlink:href="#rect3845"
       x="0"
       y="0"
       width="128"
       height="128"
       transform="translate(30.015978,43.637248)" />
    <use
       id="use4301"
       xlink:href="#rect3845"
       x="0"
       y="0"
       width="128"
       height="128"
       transform="translate(35.777115,43.946414)" />
    <use
       id="use4303"
       xlink:href="#rect3845"
       x="0"
       y="0"
       width="128"
       height="128"
       transform="translate(30.991071,37.352773)" />
    <use
       id="use4305"
       xlink:href="#rect3845"
       x="0"
       y="0"
       width="128"
       height="128"
       transform="translate(37.916437,48.491032)" />
    <use
       id="use4307"
       xlink:href="#rect3845"
       x="0"
       y="0"
       width="128"
       height="128"
       transform="translate(30.967858,28.710263)" />
    <use
       id="use4309"
       xlink:href="#rect3845"
       x="0"
       y="0"
       width="128"
       height="128"
       transform="translate(33.659599,33.004123)" />
    <use
       id="use4311"
       xlink:href="#rect3845"
       x="0"
       y="0"
       width="128"
       height="128"
       transform="translate(21.093102,20.441032)" />
    <use
       id="use4313"
       xlink:href="#rect3845"
       x="0"
       y="0"
       width="128"
       height="128"
       transform="translate(13.901541,39.264704)" />
    <use
       id="use4315"
       xlink:href="#rect3845"
       x="0"
       y="0"
       width="128"
       height="128"
       transform="translate(30.920712,36.737847)" />
    <use
       id="use4317"
       xlink:href="#rect3845"
       x="0"
       y="0"
       width="128"
       height="128"
       transform="translate(33.73748,43.262461)" />
    <use
       id="use4319"
       xlink:href="#rect3845"
       x="0"
       y="0"
       width="128"
       height="128"
       transform="translate(27.936062,50.609545)" />
    <use
       id="use4321"
       xlink:href="#rect3845"
       x="0"
       y="0"
       width="128"
       height="128"
       transform="translate(11.131847,43.968501)" />
    <use
       id="use4323"
       xlink:href="#rect3845"
       x="0"
       y="0"
       width="128"
       height="128"
       transform="translate(25.286429,29.514478)" />
    <use
       id="use4325"
       xlink:href="#rect3845"
       x="0"
       y="0"
       width="128"
       height="128"
       transform="translate(17.203443,59.594102)" />
    <use
       id="use4327"
       xlink:href="#rect3845"
       x="0"
       y="0"
       width="128"
       height="128"
       transform="translate(17.582378,53.129241)" />
    <use
       id="use4329"
       xlink:href="#rect3845"
       x="0"
       y="0"
       width="128"
       height="128"
       transform="translate(6.8092636,26.969479)" />
    <use
       id="use4331"
       xlink:href="#rect3845"
       x="0"
       y="0"
       width="128"
       height="128"
       transform="translate(12.533292,49.260651)" />
    <use
       id="use4333"
       xlink:href="#rect3845"
       x="0"
       y="0"
       width="128"
       height="128"
       transform="translate(9.9111684,64.492935)" />
    <use
       id="use4335"
       xlink:href="#rect3845"
       x="0"
       y="0"
       width="128"
       height="128"
       transform="translate(24.115824,52.704934)" />
    <use
       id="use4337"
       xlink:href="#rect3845"
       x="0"
       y="0"
       width="128"
       height="128"
       transform="translate(-0.30985107,61.716036)" />
    <use
       id="use4339"
       xlink:href="#rect3845"
       x="0"
       y="0"
       width="128"
       height="128"
       transform="translate(10.217402,59.185553)" />
    <use
       id="use4341"
       xlink:href="#rect3845"
       x="0"
       y="0"
       width="128"
       height="128"
       transform="translate(-7.4486218,66.914907)" />
    <use
       id="use4343"
       xlink:href="#rect3845"
       x="0"
       y="0"
       width="128"
       height="128"
       transform="translate(-9.5647726,57.084866)" />
    <use
       id="use4345"
       xlink:href="#rect3845"
       x="0"
       y="0"
       width="128"
       height="128"
       transform="translate(1.3653649,45.897995)" />
    <use
       id="use4347"
       xlink:href="#rect3845"
       x="0"
       y="0"
       width="128"
       height="128"
       transform="translate(-3.1782295,55.570041)" />
    <use
       id="use4349"
       xlink:href="#rect3845"
       x="0"
       y="0"
       width="128"
       height="128"
       transform="translate(-4.2507861,46.339745)" />
    <use
       id="use4351"
       xlink:href="#rect3845"
       x="0"
       y="0"
       width="128"
       height="128"
       transform="translate(8.2388623,46.07987)" />
    <use
       id="use4353"
       xlink:href="#rect3845"
       x="0"
       y="0"
       width="128"
       height="128"
       transform="translate(5.689143,58.463462)" />
    <use
       id="use4355"
       xlink:href="#rect3845"
       x="0"
       y="0"
       width="128"
       height="128"
       transform="translate(-1.8565863,59.522799)" />
    <use
       id="use4357"
       xlink:href="#rect3845"
       x="0"
       y="0"
       width="128"
       height="128"
       transform="translate(8.3767636,65.772712)" />
    <use
       id="use4359"
       xlink:href="#rect3845"
       x="0"
       y="0"
       width="128"
       height="128"
       transform="translate(6.7919722,57.070392)" />
    <use
       id="use4361"
       xlink:href="#rect3845"
       x="0"
       y="0"
       width="128"
       height="128"
       transform="translate(-5.7826124,69.680531)" />
    <use
       id="use4363"
       xlink:href="#rect3845"
       x="0"
       y="0"
       width="128"
       height="128"
       transform="translate(-10.783928,75.916746)" />
    <use
       id="use4365"
       xlink:href="#rect3845"
       x="0"
       y="0"
       width="128"
       height="128"
       transform="translate(13.168145,62.145767)" />
    <use
       id="use4367"
       xlink:href="#rect3845"
       x="0"
       y="0"
       width="128"
       height="128"
       transform="translate(6.9320316,84.525758)" />
    <use
       id="use4369"
       xlink:href="#rect3845"
       x="0"
       y="0"
       width="128"
       height="128"
       transform="translate(17.750868,76.096922)" />
    <use
       id="use4371"
       xlink:href="#rect3845"
       x="0"
       y="0"
       width="128"
       height="128"
       transform="translate(5.3669143,69.60286)" />
    <use
       id="use4373"
       xlink:href="#rect3845"
       x="0"
       y="0"
       width="128"
       height="128"
       transform="translate(8.8163063,73.47576)" />
    <use
       id="use4375"
       xlink:href="#rect3845"
       x="0"
       y="0"
       width="128"
       height="128"
       transform="translate(-4.2525676,63.028982)" />
    <use
       id="use4377"
       xlink:href="#rect3845"
       x="0"
       y="0"
       width="128"
       height="128"
       transform="translate(10.263246,80.932852)" />
    <use
       id="use4379"
       xlink:href="#rect3845"
       x="0"
       y="0"
       width="128"
       height="128"
       transform="translate(-0.21209831,82.773671)" />
    <use
       id="use4381"
       xlink:href="#rect3845"
       x="0"
       y="0"
       width="128"
       height="128"
       transform="translate(6.4844656,73.80887)" />
    <use
       id="use4383"
       xlink:href="#rect3845"
       x="0"
       y="0"
       width="128"
       height="128"
       transform="translate(17.49706,73.211625)" />
    <use
       id="use4385"
       xlink:href="#rect3845"
       x="0"
       y="0"
       width="128"
       height="128"
       transform="translate(15.380201,89.918766)" />
    <use
       id="use4387"
       xlink:href="#rect3845"
       x="0"
       y="0"
       width="128"
       height="128"
       transform="translate(26.253595,68.362346)" />
    <use
       id="use4389"
       xlink:href="#rect3845"
       x="0"
       y="0"
       width="128"
       height="128"
       transform="translate(46.96492,91.864467)" />
    <use
       id="use4391"
       xlink:href="#rect3845"
       x="0"
       y="0"
       width="128"
       height="128"
       transform="translate(37.91064,86.977888)" />
    <use
       id="use4393"
       xlink:href="#rect3845"
       x="0"
       y="0"
       width="128"
       height="128"
       transform="translate(37.292746,67.965735)" />
    <use
       id="use4395"
       xlink:href="#rect3845"
       x="0"
       y="0"
       width="128"
       height="128"
       transform="translate(62.341841,87.129672)" />
    <use
       id="use4397"
       xlink:href="#rect3845"
       x="0"
       y="0"
       width="128"
       height="128"
       transform="translate(68.84064,74.036796)" />
    <use
       id="use4399"
       xlink:href="#rect3845"
       x="0"
       y="0"
       width="128"
       height="128"
       transform="translate(67.480307,66.183787)" />
    <use
       id="use4401"
       xlink:href="#rect3845"
       x="0"
       y="0"
       width="128"
       height="128"
       transform="translate(65.122504,70.160862)" />
    <use
       id="use4403"
       xlink:href="#rect3845"
       x="0"
       y="0"
       width="128"
       height="128"
       transform="translate(73.302784,76.115886)" />
    <use
       id="use4405"
       xlink:href="#rect3845"
       x="0"
       y="0"
       width="128"
       height="128"
       transform="translate(65.973075,88.473368)" />
    <use
       id="use4407"
       xlink:href="#rect3845"
       x="0"
       y="0"
       width="128"
       height="128"
       transform="translate(75.525543,70.945791)" />
    <use
       id="use4409"
       xlink:href="#rect3845"
       x="0"
       y="0"
       width="128"
       height="128"
       transform="translate(72.200115,66.711602)" />
    <use
       id="use4411"
       xlink:href="#rect3845"
       x="0"
       y="0"
       width="128"
       height="128"
       transform="translate(82.697555,85.510567)" />
    <use
       id="use4413"
       xlink:href="#rect3845"
       x="0"
       y="0"
       width="128"
       height="128"
       transform="translate(71.776666,76.868566)" />
    <use
       id="use4415"
       xlink:href="#rect3845"
       x="0"
       y="0"
       width="128"
       height="128"
       transform="translate(75.055238,65.357249)" />
    <use
       id="use4417"
       xlink:href="#rect3845"
       x="0"
       y="0"
       width="128"
       height="128"
       transform="translate(71.202715,90.364045)" />
    <use
       id="use4419"
       xlink:href="#rect3845"
       x="0"
       y="0"
       width="128"
       height="128"
       transform="translate(84.770177,79.704583)" />
    <use
       id="use4421"
       xlink:href="#rect3845"
       x="0"
       y="0"
       width="128"
       height="128"
       transform="translate(88.463712,82.423623)" />
    <use
       id="use4423"
       xlink:href="#rect3845"
       x="0"
       y="0"
       width="128"
       height="128"
       transform="translate(76.304012,63.135632)" />
    <use
       id="use4425"
       xlink:href="#rect3845"
       x="0"
       y="0"
       width="128"
       height="128"
       transform="translate(64.102652,83.899391)" />
    <use
       id="use4427"
       xlink:href="#rect3845"
       x="0"
       y="0"
       width="128"
       height="128"
       transform="translate(64.841576,83.72096)" />
    <use
       id="use4429"
       xlink:href="#rect3845"
       x="0"
       y="0"
       width="128"
       height="128"
       transform="translate(75.496646,73.281358)" />
    <use
       id="use4431"
       xlink:href="#rect3845"
       x="0"
       y="0"
       width="128"
       height="128"
       transform="translate(78.700219,60.891832)" />
    <use
       id="use4433"
       xlink:href="#rect3845"
       x="0"
       y="0"
       width="128"
       height="128"
       transform="translate(85.370429,83.356829)" />
    <use
       id="use4435"
       xlink:href="#rect3845"
       x="0"
       y="0"
       width="128"
       height="128"
       transform="translate(67.14139,75.637787)" />
    <use
       id="use4437"
       xlink:href="#rect3845"
       x="0"
       y="0"
       width="128"
       height="128"
       transform="translate(66.056724,72.639341)" />
    <use
       id="use4439"
       xlink:href="#rect3845"
       x="0"
       y="0"
       width="128"
       height="128"
       transform="translate(86.030254,67.657374)" />
    <use
       id="use4441"
       xlink:href="#rect3845"
       x="0"
       y="0"
       width="128"
       height="128"
       transform="translate(96.353635,82.926737)" />
    <use
       id="use4443"
       xlink:href="#rect3845"
       x="0"
       y="0"
       width="128"
       height="128"
       transform="translate(76.402003,69.082269)" />
    <use
       id="use4445"
       xlink:href="#rect3845"
       x="0"
       y="0"
       width="128"
       height="128"
       transform="translate(67.593814,70.096507)" />
    <use
       id="use4447"
       xlink:href="#rect3845"
       x="0"
       y="0"
       width="128"
       height="128"
       transform="translate(96.338041,85.1083)" />
    <use
       id="use4449"
       xlink:href="#rect3845"
       x="0"
       y="0"
       width="128"
       height="128"
       transform="translate(88.622672,57.33079)" />
  </g>
</svg>
