<?xml version="1.0" encoding="UTF-8" standalone="no"?>
<!-- Created with Inkscape (http://www.inkscape.org/) -->

<svg
   xmlns:dc="http://purl.org/dc/elements/1.1/"
   xmlns:cc="http://creativecommons.org/ns#"
   xmlns:rdf="http://www.w3.org/1999/02/22-rdf-syntax-ns#"
   xmlns:svg="http://www.w3.org/2000/svg"
   xmlns="http://www.w3.org/2000/svg"
   xmlns:sodipodi="http://sodipodi.sourceforge.net/DTD/sodipodi-0.dtd"
   xmlns:inkscape="http://www.inkscape.org/namespaces/inkscape"
   width="128"
   height="128"
   id="svg2"
   version="1.1"
   inkscape:version="0.48.4 r9939"
   sodipodi:docname="horizontalPattern.svg">
  <defs
     id="defs4" />
  <sodipodi:namedview
     id="base"
     pagecolor="#ffffff"
     bordercolor="#666666"
     borderopacity="1.0"
     inkscape:pageopacity="0"
     inkscape:pageshadow="2"
     inkscape:zoom="1.979899"
     inkscape:cx="68.01302"
     inkscape:cy="51.174939"
     inkscape:document-units="px"
     inkscape:current-layer="layer1"
     showgrid="false"
     borderlayer="false"
     showguides="true"
     showborder="true"
     inkscape:showpageshadow="false"
     inkscape:window-width="1366"
     inkscape:window-height="724"
     inkscape:window-x="-2"
     inkscape:window-y="21"
     inkscape:window-maximized="1"
     inkscape:guide-bbox="true">
    <sodipodi:guide
       position="0,0"
       orientation="0,128"
       id="guide2985" />
    <sodipodi:guide
       position="128,0"
       orientation="-128,0"
       id="guide2987" />
    <sodipodi:guide
       position="128,128"
       orientation="0,-128"
       id="guide2989" />
    <sodipodi:guide
       position="0,128"
       orientation="128,0"
       id="guide2991" />
    <sodipodi:guide
       orientation="0,1"
       position="149.50258,162.63456"
       id="guide3784" />
    <sodipodi:guide
       orientation="1,0"
       position="128,84.347738"
       id="guide3786" />
  </sodipodi:namedview>
  <metadata
     id="metadata7">
    <rdf:RDF>
      <cc:Work
         rdf:about="">
        <dc:format>image/svg+xml</dc:format>
        <dc:type
           rdf:resource="http://purl.org/dc/dcmitype/StillImage" />
        <dc:title></dc:title>
      </cc:Work>
    </rdf:RDF>
  </metadata>
  <g
     inkscape:label="Layer 1"
     inkscape:groupmode="layer"
     id="layer1"
     transform="translate(0,-924.3622)">
    <path
       style="fill:none;stroke:#e74c3c;stroke-width:8;stroke-linecap:butt;stroke-linejoin:miter;stroke-miterlimit:4;stroke-opacity:1;stroke-dasharray:none;marker-end:none"
       d="m 36.725887,1040.6376 c 0,-6.3977 0,-12.7953 0,-19.1929 0,-17.1726 0,-34.34521 0,-51.51781 0,-6.90271 0,-13.80542 0,-20.70812 0,-3.19882 0,-6.39763 0,-9.59645 0,-1.01015 0,-2.0203 0,-3.03046 0,-0.16836 -0.16836,-0.50507 0,-0.50507 0.16836,0 0,0.33671 0,0.50507"
       id="path4668"
       inkscape:connector-curvature="0" />
    <path
       style="fill:none;stroke:#e74c3c;stroke-width:8;stroke-linecap:butt;stroke-linejoin:miter;stroke-miterlimit:4;stroke-opacity:1;stroke-dasharray:none;marker-end:none"
       d="m 90.769044,1040.6376 c 0,-6.3977 0,-12.7953 0,-19.1929 0,-17.1726 0,-34.3452 0,-51.51779 0,-6.90271 0,-13.80542 0,-20.70813 0,-3.19882 0,-6.39764 0,-9.59646 0,-1.01015 0,-2.0203 0,-3.03046 0,-0.16836 -0.16836,-0.50507 0,-0.50507 0.16836,0 0,0.33671 0,0.50507"
       id="path4668-1"
       inkscape:connector-curvature="0" />
    <path
       style="fill:none;stroke:#e74c3c;stroke-width:8;stroke-linecap:butt;stroke-linejoin:miter;stroke-miterlimit:4;stroke-opacity:1;stroke-dasharray:none;marker-end:none"
       d="m 15.512677,1040.6376 c 0,-6.3977 0,-12.7953 0,-19.1929 0,-17.1726 0,-34.34518 0,-51.51778 0,-6.90271 0,-13.80542 0,-20.70812 0,-3.19882 0,-6.39763 0,-9.59645 0,-1.01015 0,-2.0203 0,-3.03046 0,-0.16836 -0.16836,-0.50507 0,-0.50507 0.16836,0 0,0.33671 0,0.50507"
       id="path4668-16"
       inkscape:connector-curvature="0" />
    <path
       style="fill:none;stroke:#e74c3c;stroke-width:8;stroke-linecap:butt;stroke-linejoin:miter;stroke-miterlimit:4;stroke-opacity:1;stroke-dasharray:none;marker-end:none"
       d="m 111.98225,1040.6376 c 0,-6.3977 0,-12.7953 0,-19.1929 0,-17.1726 0,-34.3452 0,-51.5178 0,-6.90271 0,-13.80542 0,-20.70812 0,-3.19882 0,-6.39764 0,-9.59645 0,-1.01015 0,-2.0203 0,-3.03046 0,-0.16836 -0.16836,-0.50507 0,-0.50507 0.16836,0 0,0.33671 0,0.50507"
       id="path4668-9"
       inkscape:connector-curvature="0" />
    <path
       style="fill:none;stroke:#e74c3c;stroke-width:8;stroke-linecap:butt;stroke-linejoin:miter;stroke-miterlimit:4;stroke-opacity:1;stroke-dasharray:none;marker-end:none"
       d="m 51.878148,1040.6376 c 0,-6.3976 0,-12.7952 0,-19.1929 0,-17.1726 0,-34.3452 0,-51.51776 0,-6.90271 0,-13.80542 0,-20.70813 0,-3.19883 0,-6.39764 0,-9.59646 0,-1.01014 0,-2.0203 0,-3.03045 0,-0.16836 -0.1683,-0.50508 0,-0.50508 0.1684,0 0,0.33672 0,0.50508"
       id="path4668-6"
       inkscape:connector-curvature="0" />
    <path
       style="fill:none;stroke:#e74c3c;stroke-width:8;stroke-linecap:butt;stroke-linejoin:miter;stroke-miterlimit:4;stroke-opacity:1;stroke-dasharray:none;marker-end:none"
       d="m 62.484747,1040.6376 c 0,-6.3976 0,-12.7953 0,-19.1929 0,-17.1726 0,-34.34524 0,-51.51784 0,-6.90267 0,-13.80538 0,-20.70809 0,-3.19882 0,-6.39763 0,-9.59645 0,-1.01015 0,-2.0203 0,-3.03046 0,-0.16836 -0.1683,-0.50507 0,-0.50507 0.1684,0 0,0.33671 0,0.50507"
       id="path4668-0"
       inkscape:connector-curvature="0" />
    <path
       style="fill:none;stroke:#e74c3c;stroke-width:8;stroke-linecap:butt;stroke-linejoin:miter;stroke-miterlimit:4;stroke-opacity:1;stroke-dasharray:none;marker-end:none"
       d="m 78.142115,1040.6376 c 0,-6.3976 0,-12.7952 0,-19.1929 0,-17.1726 0,-34.34519 0,-51.51779 0,-6.9027 0,-13.8054 0,-20.70809 0,-3.19882 0,-6.39764 0,-9.59646 0,-1.01015 0,-2.0203 0,-3.03046 0,-0.16836 -0.1683,-0.50507 0,-0.50507 0.1684,0 0,0.33671 0,0.50507"
       id="path4668-06"
       inkscape:connector-curvature="0" />
  </g>
</svg>
